<svg xmlns="http://www.w3.org/2000/svg" width="1200" height="800" viewBox="0 0 1200 800">
  <defs>
    <linearGradient id="card" x1="0" x2="0" y1="0" y2="1">
      <stop offset="0%" stop-color="#ffffff"/>
      <stop offset="100%" stop-color="#f3f3f3"/>
    </linearGradient>
    <linearGradient id="glass" x1="0" x2="0" y1="0" y2="1">
      <stop offset="0%" stop-color="#7fa2c7" stop-opacity="0.75"/>
      <stop offset="55%" stop-color="#a9c0dc" stop-opacity="0.55"/>
      <stop offset="100%" stop-color="#e2eef8" stop-opacity="0.85"/>
    </linearGradient>
    <pattern id="pleats" width="18" height="14" patternUnits="userSpaceOnUse">
      <rect width="18" height="10" fill="#b9a38b"/>
      <rect y="10" width="18" height="4" fill="#a89178"/>
    </pattern>
    <filter id="shadow" x="-20%" y="-20%" width="140%" height="140%">
      <feDropShadow dx="0" dy="10" stdDeviation="14" flood-color="#000" flood-opacity="0.25"/>
    </filter>
  </defs>

  <rect width="1200" height="800" fill="#ececec"/>

  <g filter="url(#shadow)">
    <rect x="120" y="60" width="960" height="680" rx="28" fill="url(#card)"/>
  </g>

  <text x="170" y="130" font-family="Arial, sans-serif" font-size="30" font-weight="600" fill="#111">Honeycomb Curtain</text>

  <rect x="170" y="160" width="860" height="360" rx="18" fill="#101010"/>
  <rect x="200" y="190" width="800" height="300" rx="16" fill="url(#glass)" stroke="#111" stroke-width="16"/>
  <rect x="220" y="210" width="760" height="50" rx="16" fill="#111"/>
  <rect x="240" y="300" width="720" height="26" rx="13" fill="#111"/>
  <rect x="240" y="440" width="720" height="30" rx="15" fill="#111"/>
  <rect x="250" y="326" width="700" height="114" rx="12" fill="url(#pleats)"/>
  <rect x="230" y="220" width="300" height="90" rx="12" fill="#ffffff" opacity="0.12"/>
  <rect x="260" y="235" width="240" height="70" rx="10" fill="#ffffff" opacity="0.08"/>

  <text x="170" y="560" font-family="Arial, sans-serif" font-size="20" fill="#333">Top motor: 46%</text>
  <text x="520" y="560" font-family="Arial, sans-serif" font-size="20" fill="#333">Bottom motor: 15%</text>
  <text x="170" y="590" font-family="Arial, sans-serif" font-size="20" fill="#333">Status: Partially open</text>

  <g>
    <rect x="170" y="620" width="160" height="48" rx="12" fill="#0d0d0d"/>
    <text x="210" y="651" font-family="Arial, sans-serif" font-size="18" fill="#fff">Open</text>

    <rect x="350" y="620" width="160" height="48" rx="12" fill="#0d0d0d"/>
    <text x="406" y="651" font-family="Arial, sans-serif" font-size="18" fill="#fff">Stop</text>

    <rect x="530" y="620" width="160" height="48" rx="12" fill="#0d0d0d"/>
    <text x="575" y="651" font-family="Arial, sans-serif" font-size="18" fill="#fff">Close</text>

    <rect x="710" y="620" width="160" height="48" rx="12" fill="#0d0d0d"/>
    <text x="742" y="651" font-family="Arial, sans-serif" font-size="18" fill="#fff">Middle</text>

    <rect x="890" y="620" width="190" height="48" rx="12" fill="#0d0d0d"/>
    <text x="910" y="651" font-family="Arial, sans-serif" font-size="18" fill="#fff">Bottom closed</text>
  </g>
</svg>
